<?xml version="1.0" encoding="utf-8"?>
<!-- Generator: Adobe Illustrator 21.0.0, SVG Export Plug-In . SVG Version: 6.00 Build 0)  -->
<svg version="1.1" id="Layer_1" xmlns="http://www.w3.org/2000/svg" xmlns:xlink="http://www.w3.org/1999/xlink" x="0px" y="0px"
	 viewBox="0 0 512 512" style="enable-background:new 0 0 512 512;" xml:space="preserve">
<style type="text/css">
	.st0{fill:#71CCE0;}
	.st1{fill:#DFDFDF;}
	.st2{fill:#4A555F;}
	.st3{fill:#FFD452;}
	.st4{fill:#F58E6F;}
	.st5{fill:#FFFFFF;}
	.st6{fill:none;}
</style>
<g>
	<g>
		<g>
			<g>
				<path class="st2" d="M210.862,469.994c-0.532-3.274-0.683-6.551-0.448-9.738l0.267-3.642H58.741
					c-22.201,0-40.264,18.062-40.264,40.264v14.502h225.56l0.63-6.729C227.3,501.369,213.714,487.441,210.862,469.994z
					 M25.265,504.592v-7.715c0-18.459,15.017-33.476,33.476-33.476h144.778c0.012,2.544,0.226,5.117,0.644,7.686
					c2.299,14.059,10.6,26.15,22.204,33.505H25.265z"/>
			</g>
		</g>
	</g>
	<g>
		<g>
			<path class="st1" d="M196.139,472.385c-0.046-0.285-0.09-0.571-0.132-0.855H58.741c-13.838,0-25.123,11.147-25.345,24.933H206.13
				C201.086,489.45,197.589,481.252,196.139,472.385z"/>
		</g>
	</g>
	<g>
		<g>
			<g>
				<path class="st2" d="M323.844,503.699l-0.616,0.124l-2.906-17.663l-13.962,2.281l-4.517-27.56l-7.103-3.184l0.033,5.282
					c0.129,20.367-14.33,37.893-34.382,41.671l0.629,6.729h56.572l0.081,0.49l2.427-0.49h3.859L323.844,503.699z M278.774,504.592
					c8.848-5.592,15.69-13.899,19.479-23.646l2.506,15.289l13.966-2.281l1.75,10.639H278.774z"/>
			</g>
		</g>
	</g>
	<g>
		<g>
			<g>
				<path class="st2" d="M241.549,418.919c-1.004-3.652-1.763-7.55-2.254-11.579c-8.063-67.128-27.045-230.466-27.236-232.109
					l-0.348-3.001h-81.197l-0.281,3.084c-0.157,1.713-15.788,172.064-24.772,231.925c-5.99,39.818-33.304,49.159-34.453,49.534
					l-20.799,6.627H210.2l0.214-3.164c1.15-16.962,12.771-31.909,28.917-37.191l3.076-1.007L241.549,418.919z M203.964,456.613
					H85.229c9.925-7.268,22.921-21.632,26.943-48.365c8.34-55.575,22.365-205.775,24.534-229.231h68.959
					c2.635,22.661,19.433,167.041,26.892,229.137c0.398,3.27,0.96,6.463,1.676,9.53
					C218.031,424.214,206.306,439.291,203.964,456.613z"/>
			</g>
		</g>
	</g>
	<g>
		<g>
			<path class="st1" d="M224.486,409.118c-6.893-57.384-21.758-185.019-26.057-221.973h-54.312
				c-3.58,38.438-16.055,169.989-23.908,222.312c-2.588,17.202-8.657,29.843-15.518,39.028h92.637
				c4.033-14.983,14.14-27.903,27.718-35.413C224.834,411.769,224.648,410.449,224.486,409.118z"/>
		</g>
	</g>
	<g>
		<g>
			<g>
				<path class="st2" d="M57.321,148.565v30.45h230.092v-30.45H57.321z M280.626,172.228H64.109v-16.875h216.517V172.228z"/>
			</g>
		</g>
	</g>
	<g>
		<g>
			<g>
				<path class="st2" d="M93.884,124.585v30.767h156.967v-30.767H93.884z M244.063,148.565H100.672v-17.192h143.391V148.565z"/>
			</g>
		</g>
	</g>
	<g>
		<g>
			<g>
				<path class="st2" d="M219.26,19.77v3.394c0,3.582-2.914,6.496-6.496,6.496c-3.572,0-6.477-2.914-6.477-6.496V19.77h-11
					C193.637,8.601,183.986,0,172.366,0c-11.619,0-21.27,8.601-22.92,19.77h-11.363v3.394c0,3.582-2.914,6.496-6.496,6.496
					s-6.496-2.914-6.496-6.496V19.77h-22.093l25.542,111.603h89.159L241.67,19.77H219.26z M212.215,124.585h-78.266l-22.436-98.028
					h7.229c1.504,5.686,6.692,9.89,12.844,9.89s11.34-4.204,12.844-9.89h11.552l0.001-3.393c0.003-9.03,7.353-16.377,16.382-16.377
					c9.03,0,16.38,7.347,16.382,16.377l0.001,3.393h11.189c1.501,5.686,6.683,9.89,12.826,9.89c6.152,0,11.34-4.204,12.844-9.89
					h7.662L212.215,124.585z"/>
			</g>
		</g>
	</g>
	<g>
		<g>
			<path class="st1" d="M212.765,44.576c-7.561,0-14.219-3.947-18.026-9.89h-14.114l-0.004-11.518
				c-0.002-4.55-3.705-8.252-8.254-8.252c-4.551,0-8.253,3.702-8.254,8.251l-0.003,11.519h-14.481
				c-3.809,5.943-10.472,9.89-18.04,9.89c-2.813,0-5.5-0.545-7.962-1.535l16.802,73.416h65.221l15.838-73.739
				C218.82,43.912,215.869,44.576,212.765,44.576z"/>
		</g>
	</g>
	<g>
		<g>
			<g>
				<path class="st2" d="M429.018,360.682l-2.982,22.87c-0.019,0.139-2.028,14.017-20.097,19.254
					c-32.147,9.317-80.504,26.757-80.99,26.933l-2.652,0.958l6.929,42.245l2.942-0.061c0.547-0.011,55.015-1.124,84.913-1.522
					c0.199-0.003,0.395-0.004,0.591-0.004c18.249,0,24.48,11.408,24.729,11.878l9.902,19.427L429.018,360.682z M417.679,464.565
					c-0.228,0-0.458,0.001-0.689,0.004c-25.908,0.347-70.236,1.227-82.019,1.465l-5.061-30.865
					c10.558-3.771,50.303-17.841,77.918-25.845c10.407-3.017,16.51-8.48,20.07-13.524l12.376,75.465
					C435.416,467.765,428.121,464.565,417.679,464.565z"/>
			</g>
		</g>
	</g>
	<g>
		<g>
			<path class="st4" d="M422.288,411.816c-3.465,2.125-7.505,3.956-12.197,5.315c-23.371,6.774-55.583,17.957-71.062,23.424
				l2.822,17.212c17.243-0.342,52.865-1.028,75.03-1.324l0.791-0.006c4.45,0,8.5,0.516,12.164,1.403L422.288,411.816z"/>
		</g>
	</g>
	<g>
		<g>
			<g>
				<path class="st2" d="M322.887,392.354l-24.179,3.966l18.932,115.431l24.177-3.966L322.887,392.354z M306.506,401.919
					l10.782-1.768l16.733,102.035l-10.781,1.768L306.506,401.919z"/>
			</g>
		</g>
	</g>
	<g>
		<g>
			<g>
				<path class="st2" d="M308.327,413.025l-20.65,3.387l13.093,79.823l20.65-3.387L308.327,413.025z M295.474,422.011l7.254-1.189
					l10.894,66.427l-7.254,1.189L295.474,422.011z"/>
			</g>
		</g>
	</g>
	<g>
		<g>
			<g>
				<path class="st2" d="M300.916,455.219c-4.374-26.667-29.642-44.81-56.322-40.431c-26.669,4.374-44.805,29.631-40.432,56.298
					c3.312,20.256,19.082,36.425,39.244,40.234l16.945,0.059l0.216-0.011c0.137,0.008,0.285,0.011,0.453,0.011h0.317l0.313-0.059
					C288,506.345,305.249,481.703,300.916,455.219z M260.922,504.592v-0.001c0.279,0.011,0.368,0.051,0.42,0.063L260.922,504.592z
					 M260.793,504.573l-16.433,0.019c-17.221-3.386-30.663-17.253-33.5-34.602c-1.825-11.132,0.792-22.306,7.37-31.467
					c6.579-9.161,16.332-15.211,27.462-17.037c22.989-3.767,44.756,11.857,48.525,34.83
					C297.929,478.998,283.268,500.113,260.793,504.573z"/>
			</g>
		</g>
	</g>
	<g>
		<g>
			<path class="st4" d="M286.198,457.633c-2.717-16.562-16.851-28.582-33.606-28.582c-1.855,0-3.734,0.154-5.583,0.457
				c-18.552,3.044-31.17,20.614-28.125,39.172c2.249,13.759,12.762,24.806,26.312,27.783h14.112l0.168-0.03h0.529
				C277.698,492.497,289.148,475.677,286.198,457.633z"/>
		</g>
	</g>
	<g>
		<g>
			<g>
				<path class="st2" d="M467.749,347.209l-46.567,7.638L446.957,512l46.566-7.637L467.749,347.209z M428.979,360.447l33.171-5.44
					l23.575,143.757l-33.17,5.439L428.979,360.447z"/>
			</g>
		</g>
	</g>
	<g>
		<g>
			
				<rect x="448.674" y="364.895" transform="matrix(0.9868 -0.1619 0.1619 0.9868 -63.5059 79.6931)" class="st4" width="17.358" height="129.421"/>
		</g>
	</g>
	<g>
		<g>
			<g>
				<path class="st2" d="M169.162,365.284h6.788v-6.788h-6.788V365.284z M169.162,351.709h6.788v-6.788h-6.788V351.709z
					 M169.162,338.134h6.788v-6.788h-6.788V338.134z M169.162,324.559h6.788v-6.788h-6.788V324.559z M169.162,406.01h6.788v-6.788
					h-6.788V406.01z M169.162,392.435h6.788v-6.788h-6.788V392.435z M169.162,378.86h6.788v-6.788h-6.788V378.86z M169.162,297.408
					h6.788v-6.788h-6.788V297.408z M169.162,229.532h6.788v-6.788h-6.788V229.532z M169.162,209.169v6.788h6.788v-6.788H169.162z
					 M169.162,310.983h6.788v-6.788h-6.788V310.983z M169.162,243.107h6.788v-6.788h-6.788V243.107z M169.162,283.833h6.788v-6.788
					h-6.788V283.833z M169.162,270.258h6.788v-6.788h-6.788V270.258z M169.162,256.683h6.788v-6.788h-6.788V256.683z"/>
			</g>
		</g>
	</g>
	<g>
		<g>
			<g>
				<path class="st2" d="M169.162,98.653h6.788v-6.788h-6.788V98.653z M169.162,85.078h6.788v-6.788h-6.788V85.078z M169.162,71.503
					h6.788v-6.788h-6.788V71.503z M169.162,51.737v6.191h6.788v-6.191H169.162z"/>
			</g>
		</g>
	</g>
	<g>
		<g>
			<g>
				<path class="st2" d="M379.543,439.046l1.268,6.668l6.668-1.27l-1.268-6.668L379.543,439.046z M366.208,441.585l1.268,6.668
					l6.668-1.269l-1.268-6.668L366.208,441.585z M352.873,444.125l1.268,6.668l6.668-1.27l-1.268-6.668L352.873,444.125z
					 M392.879,436.507l1.268,6.668l6.668-1.269l-1.268-6.668L392.879,436.507z M412.883,432.699l-6.668,1.269l1.268,6.668
					l6.668-1.269L412.883,432.699z"/>
			</g>
		</g>
	</g>
</g>
</svg>
